<?xml version="1.0" standalone="no"?>
<!DOCTYPE svg PUBLIC "-//W3C//DTD SVG 20010904//EN"
 "http://www.w3.org/TR/2001/REC-SVG-20010904/DTD/svg10.dtd">
<svg version="1.0" xmlns="http://www.w3.org/2000/svg"
 width="100.000000pt" height="100.000000pt" viewBox="0 0 100.000000 100.000000"
 preserveAspectRatio="xMidYMid meet">
<metadata>
Created by potrace 1.14, written by Peter Selinger 2001-2017
</metadata>
<g transform="translate(0.000000,100.000000) scale(0.100000,-0.100000)"
fill="#000000" stroke="none">
<path d="M370 790 c-63 -38 -117 -77 -121 -87 -10 -27 7 -51 54 -74 23 -12 50
-28 60 -37 9 -8 17 -12 17 -8 0 4 15 -4 33 -17 17 -14 42 -30 55 -36 21 -11
22 -10 22 23 0 32 -4 37 -52 61 -29 14 -70 37 -92 49 l-38 24 73 41 c41 23 81
46 89 50 8 5 16 24 17 45 1 20 1 36 0 35 -1 0 -54 -31 -117 -69z"/>
<path d="M500 822 c0 -36 2 -38 85 -82 47 -25 85 -47 85 -50 0 -6 -73 -52
-127 -79 -36 -18 -43 -26 -43 -51 0 -17 4 -30 9 -30 5 0 45 21 88 48 43 26 91
54 107 62 16 8 31 20 33 27 8 22 -6 63 -22 63 -8 0 -15 5 -15 10 0 6 -5 10
-10 10 -6 0 -51 24 -100 54 l-90 54 0 -36z"/>
<path d="M249 597 c-1 -1 -2 -43 -3 -93 l-2 -92 120 -71 120 -71 34 16 c19 9
60 31 91 50 31 19 59 34 63 34 4 0 6 -12 5 -27 -2 -22 -17 -35 -95 -80 l-93
-53 -87 51 c-115 69 -152 89 -153 86 -1 -1 -2 -14 -3 -30 -3 -29 1 -35 54 -65
19 -11 70 -40 114 -64 l79 -45 119 70 c66 39 122 75 124 82 3 6 4 50 2 97 l-3
85 -118 -68 c-65 -38 -123 -69 -130 -68 -7 0 -50 24 -97 52 -71 44 -86 57 -88
81 l-4 29 59 -33 c32 -19 76 -43 97 -55 l40 -21 80 48 c45 26 100 58 124 72
34 21 42 31 42 55 0 28 -1 29 -30 18 -16 -6 -30 -15 -30 -19 0 -4 -4 -8 -10
-8 -5 0 -47 -22 -92 -49 l-83 -50 -55 31 c-30 17 -70 39 -87 50 -18 10 -49 27
-68 38 -19 11 -36 19 -36 17z"/>
</g>
</svg>
